<?xml version="1.0" encoding="UTF-8"?><svg id="a" xmlns="http://www.w3.org/2000/svg" viewBox="0 0 818.8143 166.0449"><defs><style>.b{fill:none;}</style></defs><path d="M235.1966,122.1582c-8.8418,0-16.5547-1.3096-23.1396-3.9307-6.5859-2.6201-11.7012-6.665-15.3467-12.1338-3.6465-5.4688-5.4922-12.4639-5.5371-20.9863h26.25c.1816,3.0996.9678,5.7197,2.3584,7.8613,1.3896,2.1426,3.3496,3.7598,5.8789,4.8535s5.5713,1.6406,9.126,1.6406c2.9619,0,5.4453-.3643,7.4512-1.0938,2.0049-.7285,3.5205-1.7432,4.5459-3.042s1.5381-2.791,1.5381-4.4775c0-1.5488-.4902-2.9053-1.4697-4.0674-.9805-1.1621-2.5869-2.2217-4.8193-3.1787-2.2334-.957-5.2412-1.8223-9.0234-2.5977l-10.2539-2.1875c-8.9785-1.9141-16.0537-5.1836-21.2256-9.8096-5.1729-4.625-7.7588-10.9258-7.7588-18.9014,0-6.4707,1.7539-12.1338,5.2637-16.9873,3.5088-4.8535,8.3506-8.6357,14.5264-11.3477,6.1748-2.7109,13.2959-4.0674,21.3623-4.0674,8.248,0,15.3691,1.3789,21.3623,4.1357,5.9922,2.7578,10.6182,6.6309,13.877,11.6211,3.2578,4.9902,4.9102,10.8125,4.9561,17.4658h-26.5234c-.2285-3.3262-1.4473-5.9131-3.6572-7.7588-2.2109-1.8457-5.5488-2.7686-10.0146-2.7686-2.8262,0-5.1504.3311-6.9727.9912-1.8232.6611-3.168,1.584-4.0332,2.7686-.8662,1.1855-1.2988,2.5293-1.2988,4.0332,0,1.5957.4668,2.9971,1.4014,4.2041.9336,1.208,2.415,2.2559,4.4434,3.1445,2.0273.8887,4.6367,1.6748,7.8271,2.3584l8.3398,1.7773c5.6055,1.1855,10.4248,2.7578,14.458,4.7168,4.0332,1.96,7.3369,4.25,9.9121,6.8701,2.5742,2.6211,4.4658,5.5713,5.6738,8.8525,1.207,3.2812,1.8115,6.8594,1.8115,10.7324,0,6.6992-1.6523,12.3848-4.9561,17.0557-3.3047,4.6719-8.0322,8.2148-14.1846,10.6299s-13.5352,3.623-22.1484,3.623Z"/><path d="M281.823,149.502V44.502h27.207v13.3984h.6836c1.002-2.5977,2.4609-4.9902,4.375-7.1777s4.2949-3.9307,7.1436-5.2295c2.8477-1.2988,6.1631-1.9482,9.9463-1.9482,5.0586,0,9.8545,1.3447,14.3896,4.0332,4.5342,2.6895,8.2373,6.916,11.1084,12.6807,2.8711,5.7656,4.3066,13.2734,4.3066,22.5244,0,8.7959-1.3672,16.0879-4.1016,21.875-2.7344,5.7881-6.3809,10.1064-10.9375,12.9541-4.5576,2.8486-9.5703,4.2725-15.0391,4.2725-3.5547,0-6.7334-.5928-9.5361-1.7773s-5.1846-2.791-7.1436-4.8193c-1.96-2.0273-3.4639-4.3408-4.5117-6.9385h-.4102v41.1523h-27.4805ZM320.7879,100.8301c2.5518,0,4.7051-.7178,6.46-2.1533,1.7539-1.4355,3.0986-3.5088,4.0332-6.2207.9336-2.7109,1.4014-5.9355,1.4014-9.6729,0-3.7822-.4678-7.0293-1.4014-9.7412-.9346-2.7109-2.2793-4.7959-4.0332-6.2549-1.7549-1.458-3.9082-2.1875-6.46-2.1875-2.5068,0-4.6719.7295-6.4941,2.1875-1.8232,1.459-3.2246,3.5439-4.2041,6.2549-.9805,2.7119-1.4697,5.959-1.4697,9.7412,0,3.6914.4893,6.8818,1.4697,9.5703.9795,2.6895,2.3809,4.7744,4.2041,6.2549,1.8223,1.4814,3.9873,2.2217,6.4941,2.2217Z"/><path d="M403.2352,122.2949c-8.1582,0-15.188-1.5605-21.0894-4.6826-5.9023-3.1211-10.4248-7.6221-13.5693-13.501s-4.7168-12.9424-4.7168-21.1914c0-7.8838,1.583-14.7764,4.751-20.6787,3.167-5.9014,7.6445-10.4932,13.4326-13.7744,5.7871-3.2812,12.6235-4.9219,20.5083-4.9219,5.7871,0,11.0166.9004,15.6885,2.7002,4.6709,1.8008,8.6699,4.3984,11.9971,7.793,3.3262,3.3955,5.8789,7.5088,7.6562,12.3389,1.7773,4.8311,2.666,10.2998,2.666,16.4062v6.2891h-68.2231v-15.0391h55.3716l-12.8516,3.1445c0-3.0986-.4561-5.708-1.3672-7.8271-.9121-2.1191-2.2559-3.7363-4.0332-4.8535-1.7773-1.1162-3.9883-1.6748-6.6309-1.6748s-4.8535.5586-6.6309,1.6748c-1.7773,1.1172-3.1221,2.7344-4.0332,4.8535-.9126,2.1191-1.3677,4.7285-1.3677,7.8271v10.9375c0,3.373.5352,6.1641,1.6069,8.374,1.0703,2.2109,2.5859,3.8516,4.5459,4.9219,1.959,1.0713,4.2383,1.6064,6.8359,1.6064,1.8682,0,3.5654-.2617,5.0928-.7861,1.5264-.5234,2.8369-1.2754,3.9307-2.2559,1.0938-.9795,1.9141-2.1758,2.4609-3.5889l24.1992,3.5547c-1.2764,4.5576-3.5322,8.5107-6.7676,11.8604-3.2363,3.3496-7.3262,5.9365-12.2705,7.7588-4.9453,1.8223-10.6758,2.7344-17.1924,2.7344Z"/><path d="M482.6746,122.2949c-8.2949,0-15.3926-1.6514-21.2939-4.9561-5.9023-3.3037-10.4141-7.9062-13.5352-13.8086-3.1221-5.9014-4.6826-12.7715-4.6826-20.6104s1.5605-14.708,4.6826-20.6104c3.1211-5.9014,7.6328-10.5039,13.5352-13.8086,5.9014-3.3037,12.999-4.9561,21.2939-4.9561,5.2861,0,10.0713.6836,14.3555,2.0508,4.2832,1.3672,8.0088,3.3154,11.1768,5.8447,3.167,2.5293,5.6846,5.583,7.5537,9.1602,1.8682,3.5781,3.0303,7.5771,3.4863,11.9971l-25.2246,3.7598c-.3193-2.0049-.7861-3.7705-1.4014-5.2979-.6152-1.5264-1.3789-2.8135-2.29-3.8623-.9121-1.0479-1.9717-1.834-3.1787-2.3584-1.208-.5234-2.5635-.7861-4.0674-.7861-2.416,0-4.5117.6836-6.2891,2.0508s-3.1562,3.4414-4.1357,6.2207c-.9805,2.7803-1.4697,6.2666-1.4697,10.459,0,4.1475.4893,7.6338,1.4697,10.459.9795,2.8262,2.3584,4.9561,4.1357,6.3916s3.873,2.1533,6.2891,2.1533c1.5039,0,2.8594-.2734,4.0674-.8203,1.207-.5469,2.2783-1.3555,3.2129-2.4268.9336-1.0703,1.709-2.4033,2.3242-3.999.6152-1.5947,1.0596-3.418,1.333-5.4688l25.2246,3.6914c-.4561,4.5576-1.6182,8.6475-3.4863,12.2705-1.8691,3.623-4.375,6.7227-7.5195,9.2969-3.1445,2.5752-6.8701,4.5459-11.1768,5.9131s-9.1035,2.0508-14.3896,2.0508Z"/><path d="M524.3104,120.9277V19.0723h43.6133l9.1602,31.8555c.7744,2.7344,1.6631,6.3574,2.666,10.8691,1.002,4.5117,1.9932,9.3545,2.9736,14.5264.9795,5.1729,1.8799,10.1406,2.7002,14.9023.8203,4.7627,1.458,8.7842,1.9141,12.0654h-5.127c.4551-3.2812,1.082-7.3027,1.8799-12.0654.7969-4.7617,1.6855-9.7295,2.666-14.9023.9795-5.1719,1.959-10.0146,2.9395-14.5264.9795-4.5117,1.8564-8.1348,2.6318-10.8691l9.0234-31.8555h43.6816v101.8555h-27.8906v-39.375c0-2.3242.0566-5.4111.1709-9.2627.1133-3.8506.2393-8.0771.376-12.6807.1367-4.6025.2617-9.2285.376-13.877.1133-4.6484.1709-8.9316.1709-12.8516h1.5723c-.8203,4.3301-1.7549,8.8301-2.8027,13.501-1.0488,4.6719-2.1191,9.2285-3.2129,13.6719s-2.1426,8.5225-3.1445,12.2363c-1.0029,3.7148-1.8691,6.8018-2.5977,9.2627l-11.8262,39.375h-22.9688l-12.0312-39.375c-.7295-2.4609-1.6064-5.5479-2.6318-9.2627-1.0254-3.7139-2.1084-7.793-3.2471-12.2363-1.1396-4.4434-2.2451-9-3.3154-13.6719-1.0713-4.6709-2.04-9.1709-2.9053-13.501h1.9824c0,3.9199.0566,8.2031.1709,12.8516.1133,4.6484.2393,9.2744.376,13.877.1367,4.6035.2617,8.8301.376,12.6807.1133,3.8516.1709,6.9385.1709,9.2627v39.375h-27.8906Z"/><path d="M689.8143,122.2949c-8.2949,0-15.4043-1.6514-21.3281-4.9561-5.9248-3.3037-10.4482-7.9062-13.5693-13.8086-3.1221-5.9014-4.6826-12.7715-4.6826-20.6104s1.5605-14.708,4.6826-20.6104c3.1211-5.9014,7.6445-10.5039,13.5693-13.8086,5.9238-3.3037,13.0332-4.9561,21.3281-4.9561s15.3809,1.6523,21.2598,4.9561c5.8789,3.3047,10.3789,7.9072,13.501,13.8086,3.1211,5.9023,4.6826,12.7725,4.6826,20.6104s-1.5615,14.709-4.6826,20.6104c-3.1221,5.9023-7.6221,10.5049-13.501,13.8086-5.8789,3.3047-12.9658,4.9561-21.2598,4.9561ZM689.8143,101.7871c2.3691,0,4.4092-.752,6.1182-2.2559s3.0186-3.6797,3.9307-6.5283c.9111-2.8477,1.3672-6.2549,1.3672-10.2197,0-4.0098-.4561-7.4053-1.3672-10.1855-.9121-2.7793-2.2217-4.8984-3.9307-6.3574-1.709-1.458-3.749-2.1875-6.1182-2.1875-2.416,0-4.4893.7295-6.2207,2.1875-1.7324,1.459-3.0537,3.5781-3.9648,6.3574-.9121,2.7803-1.3672,6.1758-1.3672,10.1855,0,3.9648.4551,7.3721,1.3672,10.2197.9111,2.8486,2.2324,5.0244,3.9648,6.5283,1.7314,1.5039,3.8047,2.2559,6.2207,2.2559Z"/><path d="M762.3494,77.998v42.9297h-27.4805V44.502h25.7715l.5469,19.5508h-.8203c1.7314-5.7871,4.5459-10.6523,8.4424-14.5947,3.8965-3.9414,9.3535-5.9131,16.3721-5.9131,5.4229,0,10.1279,1.2305,14.1162,3.6914,3.9873,2.4609,7.0752,5.8564,9.2627,10.1855,2.1875,4.3301,3.2812,9.2744,3.2812,14.834v48.6719h-27.4805v-42.9297c0-3.7822-.957-6.7559-2.8711-8.9209-1.9141-2.1641-4.6035-3.2471-8.0664-3.2471-2.2334,0-4.1816.4902-5.8447,1.4697-1.6641.9805-2.9512,2.3701-3.8623,4.1699-.9121,1.8008-1.3672,3.9766-1.3672,6.5283Z"/><rect class="b" x="201.437" y="96.1525" width="20.6918" height="4.434"/><path d="M61.0256,25.5611h14.359v25.1282h-14.359c-2.9705,0-5.3846-2.4141-5.3846-5.3846v-14.359c0-2.9705,2.4141-5.3846,5.3846-5.3846Z"/><path d="M172.3077,30.9458v14.359c0,2.9705-2.4141,5.3846-5.3846,5.3846h-84.359v-25.1282h84.359c2.9705,0,5.3846,2.4141,5.3846,5.3846Z"/><path d="M75.3846,96.4586v25.1282H5.3846c-2.9705,0-5.3846-2.4141-5.3846-5.3846v-14.359c0-2.9705,2.4141-5.3846,5.3846-5.3846h70Z"/><path d="M116.6667,101.8432v14.359c0,2.9705-2.4141,5.3846-5.3846,5.3846h-28.7179v-25.1282h28.7179c2.9705,0,5.3846,2.4141,5.3846,5.3846Z"/><path d="M33.2051,61.4586h42.1795v25.1282h-42.1795c-2.9705,0-5.3846-2.4141-5.3846-5.3846v-14.359c0-2.9705,2.4141-5.3846,5.3846-5.3846Z"/><path d="M144.4872,66.8432v14.359c0,2.9705-2.4141,5.3846-5.3846,5.3846h-56.5385v-25.1282h56.5385c2.9705,0,5.3846,2.4141,5.3846,5.3846Z"/><rect x="82.5641" y="4.0227" width="7.1795" height="140"/></svg>